<svg xmlns="http://www.w3.org/2000/svg" viewBox="0 0 256 256"><defs><style>.cls-1{fill:#020205;}.cls-2{fill:#48a0d9;}</style></defs><title>icon</title><g id="Calque_2" data-name="Calque 2"><g id="Calque_1-2" data-name="Calque 1"><rect class="cls-1" width="256" height="256"/></g><g id="Calque_2-2" data-name="Calque 2"><path class="cls-2" d="M137.08,150.69H118.92a27.23,27.23,0,0,0-27.23,27.23V187h72.62v-9.08A27.23,27.23,0,0,0,137.08,150.69Zm-36.31,27.23a18.16,18.16,0,0,1,18.15-18.15h18.16a18.16,18.16,0,0,1,18.15,18.15Z"/><polygon class="cls-2" points="143.24 86.69 124.22 105.7 112.77 94.24 106.35 100.66 117.8 112.12 124.22 118.53 149.65 93.11 143.24 86.69"/><path class="cls-2" d="M128,69a45.39,45.39,0,1,0,45.38,45.39A45.39,45.39,0,0,0,128,69Zm0,81.69a36.31,36.31,0,1,1,36.31-36.3A36.31,36.31,0,0,1,128,150.69Z"/><path class="cls-2" d="M146.15,114.39a18.15,18.15,0,0,1-30.8,13l-6.41,6.42a27.22,27.22,0,0,0,46.29-19.43Z"/></g></g></svg>